PathFileType	4	(X/Y/Z)	C:/Users/beibeiliu/ov580/test_trc/User1\sequence.1_training_dense_left.trc
DataRate	CameraRate	NumFrames	NumMarkers	Units	OrigDataRate	OrigDataStartFrame	OrigNumFrames
120	120	9	19	mm	120	221	294
Frame#	Time	ThumbCMC			ThumbMCP			ThumbIP			ThumbTip			IndexMCP			IndexPIP			IndexTip			MiddleMCP			MiddlePIP			MiddleTip			RingMCP			RingPIP			RingTip			PinkyMCP			PinkyPIP			PinkyTip			BackHand1			BackHand2			BackHand3	
		X0	Y0	Z0	X1	Y1	Z1	X2	Y2	Z2	X3	Y3	Z3	X4	Y4	Z4	X5	Y5	Z5	X6	Y6	Z6	X7	Y7	Z7	X8	Y8	Z8	X9	Y9	Z9	X10	Y10	Z10	X11	Y11	Z11	X12	Y12	Z12	X13	Y13	Z13	X14	Y14	Z14	X15	Y15	Z15	X16	Y16	Z16	X17	Y17	Z17	X18	Y18	Z18	
220	1.83333	-167.855	63.7977	48.2327	-143.419	51.2696	28.3331	-128.765	42.2819	6.0549	-120.972	26.9131	-13.1253	-198.518	50.2361	-31.2138	-193.375	34.4045	-59.2	-181.398	13.4795	-73.1488	-221.867	36.702	-32.1059	-218.504	18.9802	-61.74	-202.975	-9.43793	-79.3614	-236.874	14.9965	-24.3109	-231.439	-3.48316	-45.7318	-214.272	-23.4954	-57.8194	-243.905	-6.44976	0.171234	-239.506	-20.343	-15.6058	-220.861	-34.4141	-35.5075	-237.78	37.4283	32.4437	-233.087	48.3686	63.5774	-210.346	66.5499	39.3219	
221	1.84167	-169.062	66.8999	46.1995	-143.668	55.0831	24.0472	-130.302	45.8758	0.300975	-118.388	32.5899	-16.5037	-201.816	46.0648	-31.1856	-196.997	31.2983	-57.4554	-181.285	8.5562	-73.0439	-223.107	31.1559	-34.0945	-218.62	9.56967	-60.8328	-199.528	-16.5186	-77.7638	-232.713	10.4945	-22.4771	-225.706	-10.6215	-45.4274	-206.499	-32.5482	-56.4624	-236.686	-10.6819	0.47219	-231.726	-28.6236	-13.616	-214.536	-44.0933	-31.5381	-234.934	33.7427	31.5602	-236.503	43.7278	69.5017	-212.089	65.1348	37.367	
222	1.85	-172.025	66.355	44.7825	-145.404	56.6169	21.9478	-131.769	49.4674	-1.89024	-119.095	35.1299	-20.2829	-202.198	45.8359	-30.6058	-196.823	30.9941	-56.9515	-181.584	9.9265	-72.7156	-222.512	26.2631	-30.7811	-214.378	5.84605	-61.0261	-195	-20.1197	-76.0934	-229.759	4.72011	-22.5188	-221.714	-15.6015	-43.5782	-201.724	-35.9613	-53.0278	-231.426	-14.6121	7.19815	-222.556	-36.2564	-12.0278	-204.811	-49.2791	-29.3347	-235.629	27.793	33.5062	-232.774	39.767	67.5471	-215.192	59.4551	42.1551	
223	1.85833	-173.064	68.3556	45.0816	-147.323	58.6165	27.7769	-136.19	50.3199	2.98458	-118.538	40.6635	-16.8921	-203.238	42.7804	-30.5844	-198.69	26.2353	-55.5319	-180.925	5.6504	-71.9994	-222.039	18.2274	-30.2318	-212.508	4.53273	-58.4862	-189.011	-18.8736	-76.518	-225.722	1.07957	-19.3123	-213.596	-20.1979	-43.1844	-193.822	-34.6772	-51.8672	-224.735	-21.2855	3.96994	-213.486	-36.5109	-11.0466	-194.568	-50.4297	-26.8649	-233.242	27.0099	34.4381	-236.156	32.9466	67.6254	-215.825	55.4923	42.1802	
224	1.86667	-175.975	66.9364	45.3322	-150.791	58.7621	23.5414	-132.053	56.8428	3.61673	-117.585	45.7346	-15.3227	-203.072	40.0151	-30.6664	-195.983	23.3926	-56.8006	-175.842	7.37384	-72.6114	-219.039	13.6444	-31.0453	-208.097	-3.07099	-58.6731	-182.187	-18.0762	-75.6596	-220.497	-4.99402	-14.4264	-207.284	-25.6043	-41.771	-183.852	-35.7708	-51.4281	-217.507	-28.5578	8.17611	-204.473	-43.5096	-6.90559	-180.926	-50.6954	-25.499	-231.056	18.2182	38.3776	-233.345	29.5837	70.767	-216.548	54.9544	40.424	
225	1.875	-177.573	68.8487	45.555	-149.72	65.9848	25.6281	-137.37	57.64	6.37386	-118.682	48.8137	-17.8144	-202.965	33.6126	-31.5945	-192.552	22.8436	-57.4734	-175.615	4.3189	-69.5375	-214.895	11.8986	-26.7272	-204.355	-7.12077	-55.41	-177.56	-19.2337	-72.863	-214.011	-14.0245	-17.0644	-198.03	-24.9939	-42.1638	-174.16	-37.2714	-49.6739	-205.584	-30.6867	7.68724	-190.774	-44.9701	-6.64843	-166.45	-50.7814	-23.6048	-226.578	12.2092	39.394	-226.677	22.4696	73.3584	-216.238	48.7843	42.4149	
226	1.88333	-180.016	67.2943	44.1171	-153.296	61.6778	24.5199	-135.66	61.9503	0.130392	-120.372	51.5014	-19.024	-201.842	30.6235	-28.1699	-192.625	17.981	-56.1157	-172.474	5.57987	-71.1533	-211.488	4.36418	-27.3699	-198.537	-11.1325	-57.2565	-171.012	-20.9444	-74.1614	-206.747	-16.2788	-16.2516	-191.227	-32.2779	-38.7388	-162.64	-37.1085	-50.848	-196.119	-37.7919	10.3003	-178.925	-49.2086	-5.16076	-158.078	-46.0493	-22.5945	-220.546	1.55609	38.6557	-223.423	16.8819	70.8806	-217.325	41.339	45.271	
227	1.89167	-183.987	62.9231	46.0973	-157.23	62.5056	23.7515	-140.889	59.7488	1.16912	-123.826	53.0153	-18.4759	-202.384	25.2324	-26.2291	-194.459	14.921	-53.8503	-168.561	3.97448	-71.9515	-208.197	-1.15113	-26.514	-195.575	-14.9749	-57.1003	-168.269	-23.8468	-75.033	-200.986	-26.2341	-13.6434	-184.11	-35.7007	-39.4263	-154.876	-39.7696	-49.7406	-186.976	-36.5026	13.9152	-171.342	-49.1735	-2.11625	-148.234	-50.104	-20.8395	-216.692	-0.255532	37.9221	-218.259	8.74566	72.9434	-218.902	38.2417	41.647	
228	1.9	-188.399	62.5363	45.031	-160.882	63.8222	24.8907	-144.57	61.4428	1.35757	-125.385	60.6098	-20.4756	-202.278	16.5689	-27.4883	-193.57	7.28244	-52.2738	-168.73	1.46723	-73.2916	-205.429	-8.78459	-24.6556	-192.333	-21.5365	-53.0995	-166.104	-27.7791	-70.861	-194.103	-29.8022	-6.00709	-177.966	-38.0995	-36.731	-153.513	-38.8763	-47.4075	-176.294	-40.2656	17.8464	-156.511	-49.7593	-2.97233	-137.568	-42.1593	-20.9861	-210.322	-7.829	42.532	-216.003	5.10006	73.9958	-218.332	32.4479	45.218	
